HIERARCHY
ROOT Hips
{
	OFFSET 0.000000 0.000000 0.000000
	CHANNELS 6 Xposition Yposition Zposition Zrotation Yrotation Xrotation 
	JOINT LHipJoint
	{
		OFFSET 0.000000 0.000000 0.000000
		CHANNELS 3 Zrotation Yrotation Xrotation
		JOINT LeftUpLeg
		{
			OFFSET 1.363060 -1.794630 0.839290
			CHANNELS 3 Zrotation Yrotation Xrotation
			JOINT LeftLeg
			{
				OFFSET 2.448110 -6.726130 0.000000
				CHANNELS 3 Zrotation Yrotation Xrotation
				JOINT LeftFoot
				{
					OFFSET 2.562200 -7.039590 0.000000
					CHANNELS 3 Zrotation Yrotation Xrotation
					JOINT LeftToeBase
					{
						OFFSET 0.157640 -0.433110 2.322550
						CHANNELS 3 Zrotation Yrotation Xrotation
						End Site
						{
							OFFSET 0.000000 0.000000 0.000000
						}
					}
				}
			}
		}
	}
	JOINT RHipJoint
	{
		OFFSET 0.000000 0.000000 0.000000
		CHANNELS 3 Zrotation Yrotation Xrotation
		JOINT RightUpLeg
		{
			OFFSET -1.305520 -1.794630 0.839290
			CHANNELS 3 Zrotation Yrotation Xrotation
			JOINT RightLeg
			{
				OFFSET -2.542530 -6.985550 0.000000
				CHANNELS 3 Zrotation Yrotation Xrotation
				JOINT RightFoot
				{
					OFFSET -2.568260 -7.056230 0.000000
					CHANNELS 3 Zrotation Yrotation Xrotation
					JOINT RightToeBase
					{
						OFFSET -0.164730 -0.452590 2.363150
						CHANNELS 3 Zrotation Yrotation Xrotation
						End Site
						{
							OFFSET 0.000000 0.000000 0.000000
						}
					}
				}
			}
		}
	}
	JOINT LowerBack
	{
		OFFSET 0.000000 0.000000 0.000000
		CHANNELS 3 Zrotation Yrotation Xrotation
		JOINT Spine
		{
			OFFSET 0.028270 2.035590 -0.193380
			CHANNELS 3 Zrotation Yrotation Xrotation
			JOINT Spine1
			{
				OFFSET 0.056720 2.048850 -0.042750
				CHANNELS 3 Zrotation Yrotation Xrotation
				JOINT Neck
				{
					OFFSET 0.000000 0.000000 0.000000
					CHANNELS 3 Zrotation Yrotation Xrotation
					JOINT Neck1
					{
						OFFSET -0.054170 1.746240 0.172020
						CHANNELS 3 Zrotation Yrotation Xrotation
						JOINT Head
						{
							OFFSET 0.104070 1.761360 -0.123970
							CHANNELS 3 Zrotation Yrotation Xrotation
							End Site
							{
								OFFSET 0.000000 0.000000 0.000000
							}
						}
					}
				}
				JOINT LeftShoulder
				{
					OFFSET 0.000000 0.000000 0.000000
					CHANNELS 3 Zrotation Yrotation Xrotation
					JOINT LeftArm
					{
						OFFSET 3.362410 1.200890 -0.311210
						CHANNELS 3 Zrotation Yrotation Xrotation
						JOINT LeftForeArm
						{
							OFFSET 4.983000 -0.000000 -0.000000
							CHANNELS 3 Zrotation Yrotation Xrotation
							JOINT LeftHand
							{
								OFFSET 3.483560 -0.000000 -0.000000
								CHANNELS 3 Zrotation Yrotation Xrotation
								JOINT LeftFingerBase
								{
									OFFSET 0.000000 0.000000 0.000000
									CHANNELS 3 Zrotation Yrotation Xrotation
									JOINT LeftHandIndex1
									{
										OFFSET 0.715260 -0.000000 -0.000000
										CHANNELS 3 Zrotation Yrotation Xrotation
										End Site
										{
											OFFSET 0.000000 0.000000 0.000000
										}
									}
								}
								JOINT LThumb
								{
									OFFSET 0.000000 0.000000 0.000000
									CHANNELS 3 Zrotation Yrotation Xrotation
									End Site
									{
										OFFSET 0.000000 0.000000 0.000000
									}
								}
							}
						}
					}
				}
				JOINT RightShoulder
				{
					OFFSET 0.000000 0.000000 0.000000
					CHANNELS 3 Zrotation Yrotation Xrotation
					JOINT RightArm
					{
						OFFSET -3.136600 1.374050 -0.404650
						CHANNELS 3 Zrotation Yrotation Xrotation
						JOINT RightForeArm
						{
							OFFSET -5.241900 -0.000000 -0.000000
							CHANNELS 3 Zrotation Yrotation Xrotation
							JOINT RightHand
							{
								OFFSET -3.444170 -0.000000 -0.000000
								CHANNELS 3 Zrotation Yrotation Xrotation
								JOINT RightFingerBase
								{
									OFFSET 0.000000 0.000000 0.000000
									CHANNELS 3 Zrotation Yrotation Xrotation
									JOINT RightHandIndex1
									{
										OFFSET -0.622530 -0.000000 -0.000000
										CHANNELS 3 Zrotation Yrotation Xrotation
										End Site
										{
											OFFSET 0.000000 0.000000 0.000000
										}
									}
								}
								JOINT RThumb
								{
									OFFSET 0.000000 0.000000 0.000000
									CHANNELS 3 Zrotation Yrotation Xrotation
									End Site
									{
										OFFSET 0.000000 0.000000 0.000000
									}
								}
							}
						}
					}
				}
			}
		}
	}
}
MOTION
Frames: 7
Frame Time: 0.008333
-1.040679 16.802310 -0.580938 -175.129469 71.041087 -176.216301 -11.084045 4.683498 -0.584479 -8.871961 9.156197 6.784544 -0.589513 2.975237 37.469449 0.771767 3.513941 3.828135 0.541699 -0.000000 -53.789699 9.580328 -0.308031 -0.211383 5.452017 -10.219565 -24.827966 1.974834 -1.191460 21.138013 -0.741075 -3.603950 0.348371 -0.860800 -0.000000 -58.431300 3.434573 -4.560410 -0.700048 0.223380 -4.871670 -2.216269 -5.947195 -4.778008 3.078243 9.548136 -22.754053 -11.645843 -2.221497 -0.117807 -1.018525 0.000000 0.000000 0.000000 4.946314 18.757032 -0.255022 -43.788110 10.714968 1.087807 -0.427143 -80.830733 -0.001618 0.758867 0.511583 0.003082 -0.070042 0.208081 -0.000000 0.000000 0.000000 0.000000 0.000000 0.000000 0.000000 15.341032 -19.675648 -0.030222 80.909324 -18.347274 -11.499262 3.883952 27.364283 0.011744 -0.207750 4.579551 -0.013167 0.133842 -0.056083 -0.000000 0.000000 0.000000 0.000000 0.000000 0.000000 0.000000 
-0.850735 16.786738 -0.617923 -174.527591 69.762259 -175.882153 -11.276754 4.743003 -0.730752 -7.672572 10.453566 5.680775 -0.319783 3.089134 40.050419 1.012429 5.295655 4.824957 0.892200 0.000000 -52.260100 9.647627 -0.423046 -0.422358 5.484327 -11.424423 -24.563107 1.888669 -1.327664 22.324051 -0.724203 -3.659054 1.380582 -0.924801 0.000000 -56.534500 3.620913 -4.523516 -0.496045 0.245056 -4.841792 -2.195876 -5.983612 -4.746803 3.037403 9.579301 -22.675833 -11.603367 -2.251578 -0.120951 -1.007699 0.000000 0.000000 0.000000 4.866184 18.529379 -0.267168 -44.191409 10.517725 1.404583 -0.461260 -80.211453 -0.002073 0.884278 0.575806 0.004002 -0.072733 0.203903 -0.000000 0.000000 0.000000 0.000000 0.000000 0.000000 0.000000 15.433391 -19.616395 -0.022382 80.964120 -18.065510 -11.419493 3.873603 27.252581 0.011155 -0.181775 4.373285 -0.011478 0.132272 -0.054945 -0.000000 0.000000 0.000000 0.000000 0.000000 0.000000 0.000000 
-0.663871 16.770386 -0.655555 -173.941414 68.483654 -175.540242 -11.462447 4.766491 -0.888399 -6.496913 11.785437 4.460870 -0.067119 3.182452 42.647053 1.304218 7.535585 5.466118 1.364301 -0.000000 -48.528599 9.697470 -0.532051 -0.615135 5.559592 -12.594925 -24.299136 1.813784 -1.436109 23.444661 -0.741751 -3.863164 2.053678 -0.991300 -0.000000 -54.270900 3.811382 -4.468968 -0.300085 0.264726 -4.794318 -2.178648 -6.028338 -4.698112 2.992959 9.629180 -22.557931 -11.564563 -2.284661 -0.124307 -0.997895 0.000000 0.000000 0.000000 4.787975 18.300336 -0.277465 -44.696660 10.324014 1.745090 -0.499352 -79.516494 -0.002548 1.017717 0.654683 0.005225 -0.075798 0.198978 -0.000000 0.000000 0.000000 0.000000 0.000000 0.000000 0.000000 15.541131 -19.508110 -0.008543 80.979977 -17.688759 -11.356579 3.863255 27.063817 0.010535 -0.180923 4.158095 -0.010787 0.130779 -0.053833 -0.000000 0.000000 0.000000 0.000000 0.000000 0.000000 0.000000 
-0.480194 16.753457 -0.693820 -173.383472 67.220900 -175.193634 -11.636146 4.754299 -1.055606 -5.372968 13.131614 3.140005 0.152881 3.259031 45.199454 1.631452 10.107378 5.616093 1.900700 0.000000 -42.506900 9.729074 -0.634787 -0.780950 5.673370 -13.666705 -24.032488 1.750354 -1.518372 24.500714 -0.792414 -4.228647 2.335178 -1.064600 -0.000000 -51.838100 4.002755 -4.396972 -0.120274 0.282090 -4.729376 -2.165923 -6.080915 -4.632113 2.944812 9.693742 -22.395917 -11.529761 -2.321107 -0.127913 -0.989196 0.000000 0.000000 0.000000 4.704493 18.079504 -0.284251 -45.292137 10.145591 2.099705 -0.541112 -78.759510 -0.003013 1.151774 0.744432 0.006853 -0.079146 0.193325 -0.000000 0.000000 0.000000 0.000000 0.000000 0.000000 0.000000 15.662373 -19.343225 0.010004 80.946400 -17.225321 -11.287552 3.852917 26.819159 0.009891 -0.199105 3.933963 -0.010798 0.129353 -0.052763 -0.000000 0.000000 0.000000 0.000000 0.000000 0.000000 0.000000 
-0.299653 16.736292 -0.732728 -172.871488 65.984147 -174.851107 -11.792717 4.710257 -1.228604 -4.330819 14.467740 1.732389 0.328846 3.324419 47.647433 1.973349 12.828544 5.166640 2.394700 -0.000001 -34.404000 9.743683 -0.731119 -0.914477 5.817328 -14.593660 -23.761357 1.697053 -1.577596 25.496841 -0.873908 -4.751131 2.230626 -1.141300 0.000000 -49.440100 4.187920 -4.309134 0.036804 0.296449 -4.648241 -2.158397 -6.139499 -4.550149 2.894300 9.768379 -22.192480 -11.499534 -2.360226 -0.131704 -0.981762 0.000000 0.000000 0.000000 4.608458 17.878175 -0.286474 -45.968209 9.987990 2.459740 -0.586620 -77.947996 -0.003423 1.278560 0.839906 0.008781 -0.082664 0.186996 -0.000000 0.000000 0.000000 0.000000 0.000000 0.000000 0.000000 15.792488 -19.123549 0.031527 80.850583 -16.677348 -11.170231 3.842356 26.531667 0.009248 -0.238666 3.708477 -0.011409 0.128050 -0.051751 -0.000000 0.000000 0.000000 0.000000 0.000000 0.000000 0.000000 
-0.122232 16.719299 -0.772319 -172.428231 64.777042 -174.528417 -11.928114 4.639435 -1.398899 -3.405780 15.754053 0.256548 0.459923 3.382050 49.917841 2.313739 15.526196 4.200845 2.751700 -0.000000 -25.843300 9.744483 -0.820088 -1.014953 5.977773 -15.351912 -23.484080 1.651530 -1.617718 26.437156 -0.983388 -5.410924 1.780431 -1.211699 -0.000000 -47.264000 4.356083 -4.208367 0.165609 0.306443 -4.553330 -2.156516 -6.201988 -4.454687 2.842639 9.848758 -21.950311 -11.473097 -2.401649 -0.135658 -0.975387 0.000000 0.000000 0.000000 4.493755 17.703814 -0.283390 -46.716521 9.856368 2.815094 -0.636240 -77.085309 -0.003754 1.389911 0.934970 0.010710 -0.086219 0.180056 -0.000000 0.000000 0.000000 0.000000 0.000000 0.000000 0.000000 15.928356 -18.852059 0.054047 80.682924 -16.049959 -10.975772 3.831391 26.215706 0.008615 -0.299170 3.487315 -0.012618 0.126907 -0.050815 -0.000000 0.000000 0.000000 0.000000 0.000000 0.000000 0.000000 
0.052189 16.703031 -0.812593 -172.078913 63.597460 -174.244473 -12.039385 4.547773 -1.555329 -2.638042 16.942568 -1.275286 0.551941 3.433382 51.964188 2.639331 18.054428 2.919812 2.927501 -0.000000 -18.805100 9.736528 -0.900347 -1.084727 6.135633 -15.940156 -23.200643 1.610968 -1.642941 27.324416 -1.117381 -6.177525 1.051548 -1.263400 -0.000000 -45.459900 4.493494 -4.098603 0.261336 0.310008 -4.447969 -2.160686 -6.266679 -4.349097 2.790484 9.931511 -21.669384 -11.448062 -2.445784 -0.139848 -0.969419 0.000000 0.000000 0.000000 4.355825 17.558739 -0.274361 -47.529284 9.756955 3.153977 -0.690614 -76.171107 -0.003981 1.479439 1.023279 0.012639 -0.089696 0.172562 -0.000000 0.000000 0.000000 0.000000 0.000000 0.000000 0.000000 16.070093 -18.529748 0.075524 80.437726 -15.353531 -10.698483 3.819986 25.889381 0.008005 -0.374324 3.272750 -0.013927 0.125919 -0.049983 -0.000000 0.000000 0.000000 0.000000 0.000000 0.000000 0.000000 
